<mxfile host="app.diagrams.net" agent="Mozilla/5.0 (Windows NT 10.0; Win64; x64) AppleWebKit/537.36 (KHTML, like Gecko) Chrome/138.0.0.0 Safari/537.36" version="28.0.5">
  <diagram name="Página-1" id="3o6et7QgHLO5ap6ps8uZ">
    <mxGraphModel dx="1009" dy="492" grid="1" gridSize="10" guides="1" tooltips="1" connect="1" arrows="1" fold="1" page="1" pageScale="1" pageWidth="827" pageHeight="1169" math="0" shadow="0">
      <root>
        <mxCell id="0" />
        <mxCell id="1" parent="0" />
        <mxCell id="11REJVE-vnxYnZSF75ua-7" value="Cadastro Produtor" style="rounded=1;whiteSpace=wrap;html=1;" parent="1" vertex="1">
          <mxGeometry x="600" y="210" width="120" height="60" as="geometry" />
        </mxCell>
        <mxCell id="11REJVE-vnxYnZSF75ua-8" value="Cadastro Edição Feira" style="rounded=1;whiteSpace=wrap;html=1;" parent="1" vertex="1">
          <mxGeometry x="600" y="629.5699999999999" width="120" height="60" as="geometry" />
        </mxCell>
        <mxCell id="11REJVE-vnxYnZSF75ua-10" value="Cadastro de Produto" style="rounded=1;whiteSpace=wrap;html=1;" parent="1" vertex="1">
          <mxGeometry x="790" y="210" width="120" height="60" as="geometry" />
        </mxCell>
        <mxCell id="11REJVE-vnxYnZSF75ua-11" value="Gerenciar Administrativamente Produtores" style="rounded=1;whiteSpace=wrap;html=1;" parent="1" vertex="1">
          <mxGeometry x="790" y="629.5699999999999" width="120" height="60" as="geometry" />
        </mxCell>
        <mxCell id="11REJVE-vnxYnZSF75ua-12" value="" style="endArrow=classic;html=1;rounded=0;entryX=0;entryY=0.25;entryDx=0;entryDy=0;exitX=1;exitY=0.25;exitDx=0;exitDy=0;" parent="1" source="11REJVE-vnxYnZSF75ua-7" target="11REJVE-vnxYnZSF75ua-10" edge="1">
          <mxGeometry width="50" height="50" relative="1" as="geometry">
            <mxPoint x="730" y="230" as="sourcePoint" />
            <mxPoint x="780" y="230" as="targetPoint" />
          </mxGeometry>
        </mxCell>
        <mxCell id="11REJVE-vnxYnZSF75ua-13" value="" style="endArrow=classic;html=1;rounded=0;entryX=1;entryY=0.75;entryDx=0;entryDy=0;exitX=0;exitY=0.75;exitDx=0;exitDy=0;" parent="1" source="11REJVE-vnxYnZSF75ua-10" target="11REJVE-vnxYnZSF75ua-7" edge="1">
          <mxGeometry width="50" height="50" relative="1" as="geometry">
            <mxPoint x="920" y="300" as="sourcePoint" />
            <mxPoint x="890" y="340" as="targetPoint" />
          </mxGeometry>
        </mxCell>
        <mxCell id="11REJVE-vnxYnZSF75ua-18" value="" style="endArrow=classic;html=1;rounded=0;exitX=0;exitY=0.75;exitDx=0;exitDy=0;entryX=1;entryY=0.75;entryDx=0;entryDy=0;" parent="1" source="11REJVE-vnxYnZSF75ua-11" target="11REJVE-vnxYnZSF75ua-8" edge="1">
          <mxGeometry width="50" height="50" relative="1" as="geometry">
            <mxPoint x="790" y="669.5699999999999" as="sourcePoint" />
            <mxPoint x="740" y="659.5699999999999" as="targetPoint" />
          </mxGeometry>
        </mxCell>
        <mxCell id="11REJVE-vnxYnZSF75ua-20" value="" style="endArrow=classic;html=1;rounded=0;entryX=0;entryY=0.25;entryDx=0;entryDy=0;exitX=1;exitY=0.25;exitDx=0;exitDy=0;" parent="1" source="11REJVE-vnxYnZSF75ua-8" target="11REJVE-vnxYnZSF75ua-11" edge="1">
          <mxGeometry width="50" height="50" relative="1" as="geometry">
            <mxPoint x="720" y="639.5699999999999" as="sourcePoint" />
            <mxPoint x="790" y="639.5699999999999" as="targetPoint" />
          </mxGeometry>
        </mxCell>
        <mxCell id="11REJVE-vnxYnZSF75ua-88" value="" style="endArrow=classic;html=1;rounded=0;entryX=0;entryY=0.5;entryDx=0;entryDy=0;exitX=1;exitY=0.5;exitDx=0;exitDy=0;" parent="1" target="11REJVE-vnxYnZSF75ua-7" edge="1" source="nGpf0-Rj_euzcakXzFP2-1">
          <mxGeometry width="50" height="50" relative="1" as="geometry">
            <mxPoint x="534" y="313.61" as="sourcePoint" />
            <mxPoint x="604" y="313.61" as="targetPoint" />
          </mxGeometry>
        </mxCell>
        <mxCell id="11REJVE-vnxYnZSF75ua-89" value="" style="endArrow=classic;html=1;rounded=0;entryX=0;entryY=0.5;entryDx=0;entryDy=0;exitX=1;exitY=0.5;exitDx=0;exitDy=0;" parent="1" source="nGpf0-Rj_euzcakXzFP2-1" target="11REJVE-vnxYnZSF75ua-8" edge="1">
          <mxGeometry width="50" height="50" relative="1" as="geometry">
            <mxPoint x="110" y="824.5699999999999" as="sourcePoint" />
            <mxPoint x="630" y="579.5699999999999" as="targetPoint" />
          </mxGeometry>
        </mxCell>
        <mxCell id="11REJVE-vnxYnZSF75ua-156" value="Tela de exportação" style="rounded=0;whiteSpace=wrap;html=1;fontFamily=Helvetica;fontSize=11;fontColor=default;labelBackgroundColor=default;" parent="1" vertex="1">
          <mxGeometry x="1648.38" y="303.57000000000005" width="120" height="60" as="geometry" />
        </mxCell>
        <mxCell id="11REJVE-vnxYnZSF75ua-157" value="Gerência de&amp;nbsp; Relatórios" style="rounded=0;whiteSpace=wrap;html=1;fontFamily=Helvetica;fontSize=11;fontColor=default;labelBackgroundColor=default;" parent="1" vertex="1">
          <mxGeometry x="1120.3" y="439.57000000000005" width="120" height="60" as="geometry" />
        </mxCell>
        <mxCell id="11REJVE-vnxYnZSF75ua-159" value="Gerência de Vendas" style="rounded=1;whiteSpace=wrap;html=1;fontFamily=Helvetica;fontSize=11;fontColor=default;labelBackgroundColor=default;" parent="1" vertex="1">
          <mxGeometry x="1300.19" y="579.57" width="120" height="60" as="geometry" />
        </mxCell>
        <mxCell id="11REJVE-vnxYnZSF75ua-161" value="Histórico de Vendas" style="rounded=1;whiteSpace=wrap;html=1;fontFamily=Helvetica;fontSize=11;fontColor=default;labelBackgroundColor=default;" parent="1" vertex="1">
          <mxGeometry x="1498.63" y="479.57000000000005" width="120" height="60" as="geometry" />
        </mxCell>
        <mxCell id="11REJVE-vnxYnZSF75ua-162" value="Histórico de Edições" style="rounded=1;whiteSpace=wrap;html=1;fontFamily=Helvetica;fontSize=11;fontColor=default;labelBackgroundColor=default;" parent="1" vertex="1">
          <mxGeometry x="1303.19" y="303.57000000000005" width="120" height="60" as="geometry" />
        </mxCell>
        <mxCell id="11REJVE-vnxYnZSF75ua-163" value="Histórico de Produtores" style="rounded=1;whiteSpace=wrap;html=1;fontFamily=Helvetica;fontSize=11;fontColor=default;labelBackgroundColor=default;" parent="1" vertex="1">
          <mxGeometry x="1498.63" y="149.57000000000005" width="120" height="60" as="geometry" />
        </mxCell>
        <mxCell id="11REJVE-vnxYnZSF75ua-166" value="" style="endArrow=classic;html=1;rounded=0;entryX=0;entryY=0.5;entryDx=0;entryDy=0;exitX=1;exitY=0.5;exitDx=0;exitDy=0;" parent="1" source="11REJVE-vnxYnZSF75ua-162" target="11REJVE-vnxYnZSF75ua-156" edge="1">
          <mxGeometry width="50" height="50" relative="1" as="geometry">
            <mxPoint x="1438.38" y="333.2600000000001" as="sourcePoint" />
            <mxPoint x="1508.38" y="333.2600000000001" as="targetPoint" />
          </mxGeometry>
        </mxCell>
        <mxCell id="11REJVE-vnxYnZSF75ua-171" value="" style="endArrow=classic;html=1;rounded=0;entryX=0;entryY=0.5;entryDx=0;entryDy=0;exitX=1;exitY=0.25;exitDx=0;exitDy=0;" parent="1" source="11REJVE-vnxYnZSF75ua-162" target="11REJVE-vnxYnZSF75ua-163" edge="1">
          <mxGeometry width="50" height="50" relative="1" as="geometry">
            <mxPoint x="1438.38" y="289.2600000000001" as="sourcePoint" />
            <mxPoint x="1508.38" y="289.2600000000001" as="targetPoint" />
          </mxGeometry>
        </mxCell>
        <mxCell id="11REJVE-vnxYnZSF75ua-172" value="" style="endArrow=classic;html=1;rounded=0;entryX=0;entryY=0.5;entryDx=0;entryDy=0;exitX=1;exitY=0.75;exitDx=0;exitDy=0;" parent="1" source="11REJVE-vnxYnZSF75ua-162" target="11REJVE-vnxYnZSF75ua-161" edge="1">
          <mxGeometry width="50" height="50" relative="1" as="geometry">
            <mxPoint x="1478.38" y="319.57000000000005" as="sourcePoint" />
            <mxPoint x="1548.38" y="319.57000000000005" as="targetPoint" />
          </mxGeometry>
        </mxCell>
        <mxCell id="11REJVE-vnxYnZSF75ua-177" value="" style="endArrow=classic;html=1;rounded=0;dashed=1;strokeColor=default;align=center;verticalAlign=middle;fontFamily=Helvetica;fontSize=11;fontColor=default;labelBackgroundColor=default;entryX=0.5;entryY=0;entryDx=0;entryDy=0;exitX=0.5;exitY=1;exitDx=0;exitDy=0;" parent="1" source="11REJVE-vnxYnZSF75ua-163" target="11REJVE-vnxYnZSF75ua-161" edge="1">
          <mxGeometry width="50" height="50" relative="1" as="geometry">
            <mxPoint x="1533.63" y="358.57000000000005" as="sourcePoint" />
            <mxPoint x="1583.63" y="308.57000000000005" as="targetPoint" />
          </mxGeometry>
        </mxCell>
        <mxCell id="11REJVE-vnxYnZSF75ua-178" value="&lt;font style=&quot;font-size: 8px;&quot;&gt;Opção de&amp;nbsp;&lt;/font&gt;&lt;div&gt;&lt;font style=&quot;font-size: 8px;&quot;&gt;selecionar&lt;/font&gt;&lt;font style=&quot;background-color: transparent; color: light-dark(rgb(0, 0, 0), rgb(255, 255, 255)); font-size: 8px;&quot;&gt;&amp;nbsp;um&lt;/font&gt;&lt;span style=&quot;background-color: transparent; color: light-dark(rgb(0, 0, 0), rgb(255, 255, 255)); font-size: 8px;&quot;&gt;&amp;nbsp;produtor&lt;/span&gt;&lt;div&gt;&lt;div&gt;&lt;font style=&quot;font-size: 8px;&quot;&gt;e ver seu&amp;nbsp;&lt;/font&gt;&lt;span style=&quot;font-size: 8px; background-color: transparent; color: light-dark(rgb(0, 0, 0), rgb(255, 255, 255));&quot;&gt;histórico de vendas&lt;/span&gt;&lt;/div&gt;&lt;/div&gt;&lt;/div&gt;" style="text;html=1;align=center;verticalAlign=middle;resizable=0;points=[];autosize=1;strokeColor=none;fillColor=none;" parent="1" vertex="1">
          <mxGeometry x="1567.64" y="237.57000000000005" width="130" height="60" as="geometry" />
        </mxCell>
        <mxCell id="11REJVE-vnxYnZSF75ua-187" value="" style="shape=stencil(lVfZctswDPwav2JAgudzmv5HZuLUnrp2xnGvvy9UjRQBsrbNGy1jSWC5OLiTh7fD0+t+F/ntdr183f88Pt8OO/m0i/F4Puyvx5uudvK4k4eXy3X/5Xr5fn4ef78+DZbD6tvlx7DDrxHXhVofUJF/j18SE4e/Xz6PgNPxvAC0RrEagATKZRtQO6VoALFRACeUTs2eECuVDABMgT2g9m1AZiprQNoGJA3RBd2hS1KoF0trpoYAkaJ1KUdi3gbEQlkMoDRqAFCoJWPf+0TbfZIo2msLzNAjodz8AYIi8LfWK3HdtmfqLgA9EVwaUwzGvnXihuzZ+tMSBSBsJrEEVRxvoJCtfcY3TGL5rIEqyBuhbuPVRKog3jyl7cI+gf3rxMbsj6YR4L9RdvEKiWzbd6+fWicJ3udT094KooWpmG0CbBa3OSk2PCpO0WHycSPi6hSdoX0lsQz1RgkUiUzV+q8Z1sD+aaqzC3ukoOgVoRnZQUYGio6fBPlkSo4frKC5E833pUUUKIK9QhtDfnjabVZcIQH+BOq25NZIBfAjqwzWmgQqykftQ/KCyIUqAjQSy2hKsHmrhMSNBxEWCc2ZvmreCXAqOoDYSwuaNCCLk/i+oXmN6kRSlyytqhNQh3L2jQP3vTJvt9gfjSt5anPv9kh1KgJOzr6AeIe2Yu8swEavSSJuGsITYPbzWSJGdT2uGivMYi06ruyGChurVk03CqnOO5CQlkE32wylDDUCrZsOoN0WxbDS3DB/gVK0GK5mRJ8Gnk2f7BE6Q/7DJzewSKYCkl95LTY1pWJeKzV7EYJHkD6Tsnh9wBjW2gtTE70PSNPYvQAwovWjD6L/AOji/f31cjydxufb8n//XtNP41tPHv8A);lineShape=1;strokeColor=default;fontFamily=Helvetica;fontSize=11;fontColor=default;labelBackgroundColor=default;" parent="1" vertex="1">
          <mxGeometry x="1575.6315898341907" y="266.59700683723895" width="10.177224566107043" height="3.395392008384306" as="geometry" />
        </mxCell>
        <mxCell id="11REJVE-vnxYnZSF75ua-188" value="" style="shape=stencil(lVZJchsxDHzNXLtIgBvOjvMPV1mOVFEkl6xsvw+UCccCpUHFtxGJFhZ2Nznxw9v26XUzUXg7n45fNz93z+ftxJ8mot1huzntzvo18ePEDy/H0+bL6fj98Dz/fn26RF6+vh1/XP7h14yTDK4XFIXf80osIP678nkG7HeHK0BLaMEAKIJpHVAjWjEAZtSyDsgJUQwgMaitA3S7JQPIBEnrAE6gaACF0JwMsY4liU7JyRATxGaQBhYHQAjNAgTFKalBbuLFSZAhZYz3hsrgoYGK4vBiIcESn0FhPT703SWeQA4rAoLlaRPE6MUL2/iC4MyHUG09jZGd+vNYf4soTj0NMdv4gOIxKPZxXAOqS7nbiqpTkQq95LHlfyv3AW30Cp0peSXpEd0cmucVmmFkKSE5rFBh1kEGamiekjOqbVp57blRZIQb4bAHUKZaJcSgSw6VSjera+k7UlN/tNRWb3GPATJIrXSzWZFOsqcmvv8u3S3xAdGVcrb9ttpnvCLNYaB6B5Er5Y/FK4nIAnJDcg5AxTwoJy0XxH0zVcrYEXHtfrB6B9ozVsPx7KVId7eFdZrBIV0tiFY5tTvsff+qaHZIodPqfryg8hBPTgMSuwzf4z3RKCcH5Qf3kNUXyvDQcUmntjBcaOSKTDVYLKuXV8n9eEG2HNICPZKGG5nVfmWtJRi9FNVrQDrnlwFF1xm142Q7UK/MXoY63uHqxt6d/OHH6X8A9OP9Lfyy2+/np/T1/vh21qX53c2PfwA=);lineShape=1;strokeColor=default;fontFamily=Helvetica;fontSize=11;fontColor=default;labelBackgroundColor=default;" parent="1" vertex="1">
          <mxGeometry x="1567.6371316978334" y="270.6325670662178" width="5.178152204292928" height="5.106796434264311" as="geometry" />
        </mxCell>
        <mxCell id="iEx4f8ndvjwDf2tm4CGQ-4" value="" style="shape=stencil(nVfLctswDPwaXzEkwRfOafofmYlTe+raGcd9/X2hUWQbkLxOepNlrkhgFwtwxQ9vm6fX9SqFt9Px8H39e/t82qz4yyql7X6zPm5P+rTixxU/vByO62/Hw8/98/j79WlYOTz9OPwavvBnxMVCOQyoFP6Obxql8cXXcf1uu7frSzLr9U3LECB2g6SfiABQiasBcKVQIKCxAWTdswOAEBcDKEwNAFIgFgOoiSIGNJullogbBIgF9EQJADhQaHYHoQrSyvp38IB3KhcBWSYhXAEyYLp0arMjvVO5CGiBqk1rq5TADr1SaT6tgQFAqGcLiJTlNkCYYpjtAGIQ1aZjmqkCaUin1H3QETAtSlzxaUXSUIDYtKqWKgYkm1ZNdAAmII2KTWvvJEB8UihEA5BIEQEiia1pSVPRLjPdqSYPQPLuZRLz1ZEKkIYmsdkYVF0VSKPPTEDTKkCtQwVbaXSeKuQWoFm16p4JiG84kiugBr11CNqVaCZGJVq8NLSAkGsocc69tUQLOJLyGmY13RCgzGqaoWuovKtluhVKyATU5xygUwTExRCmAjszp1GjM4nXd89Ty7jpMw7QpyK8lSZfcoEysg32MQzUICI+C7h0qDOgQiKqzIq6welEe1Z348yFmg+2xcFvAXPzxivnrrQ8C+j3qgc0QLXOM65IB0GiLudtQ9OKKmhmAmpkHY0/xK6ky+SdN9YXWz713FWXA/bDUtHBAMhiVmwZfz9Ms9oHJ9BA3cZ7b8SlZOO9N0PP8olndG/B2upAdnSUtct5CmdZz95NE9Ra9rnU4MHXC3W7XD0IMNW8QeDiFZ94vDwqsfUTp4nJX11wsFHbO38ilzF7K8FUqaycVxXo6P9xGbyzXh8uN8+X7W43Xlyv//c3VX013nL58R8=);lineShape=1;strokeColor=default;" parent="1" vertex="1">
          <mxGeometry x="1563.7486505597185" y="274.38805353912574" width="7.26807761894824" height="7.048795075907672" as="geometry" />
        </mxCell>
        <mxCell id="iEx4f8ndvjwDf2tm4CGQ-5" value="" style="endArrow=classic;html=1;rounded=0;entryX=0.5;entryY=0;entryDx=0;entryDy=0;exitX=1;exitY=0.5;exitDx=0;exitDy=0;" parent="1" source="11REJVE-vnxYnZSF75ua-163" target="11REJVE-vnxYnZSF75ua-156" edge="1">
          <mxGeometry width="50" height="50" relative="1" as="geometry">
            <mxPoint x="1728.38" y="458.57000000000005" as="sourcePoint" />
            <mxPoint x="1803.38" y="319.57000000000005" as="targetPoint" />
          </mxGeometry>
        </mxCell>
        <mxCell id="iEx4f8ndvjwDf2tm4CGQ-6" value="" style="endArrow=classic;html=1;rounded=0;entryX=0.5;entryY=1;entryDx=0;entryDy=0;exitX=1;exitY=0.5;exitDx=0;exitDy=0;" parent="1" source="11REJVE-vnxYnZSF75ua-161" target="11REJVE-vnxYnZSF75ua-156" edge="1">
          <mxGeometry width="50" height="50" relative="1" as="geometry">
            <mxPoint x="1768.38" y="658.57" as="sourcePoint" />
            <mxPoint x="1843.38" y="519.57" as="targetPoint" />
          </mxGeometry>
        </mxCell>
        <mxCell id="iEx4f8ndvjwDf2tm4CGQ-7" value="" style="endArrow=classic;html=1;rounded=0;exitX=1;exitY=0.5;exitDx=0;exitDy=0;entryX=0.5;entryY=1;entryDx=0;entryDy=0;" parent="1" source="11REJVE-vnxYnZSF75ua-159" target="11REJVE-vnxYnZSF75ua-161" edge="1">
          <mxGeometry width="50" height="50" relative="1" as="geometry">
            <mxPoint x="1430.19" y="588.57" as="sourcePoint" />
            <mxPoint x="1420.19" y="409.57000000000005" as="targetPoint" />
          </mxGeometry>
        </mxCell>
        <mxCell id="iEx4f8ndvjwDf2tm4CGQ-10" value="" style="endArrow=classic;html=1;rounded=0;entryX=0;entryY=0.5;entryDx=0;entryDy=0;exitX=1;exitY=0.5;exitDx=0;exitDy=0;" parent="1" source="11REJVE-vnxYnZSF75ua-157" target="11REJVE-vnxYnZSF75ua-162" edge="1">
          <mxGeometry width="50" height="50" relative="1" as="geometry">
            <mxPoint x="1228.38" y="469.57000000000005" as="sourcePoint" />
            <mxPoint x="1439.38" y="539.57" as="targetPoint" />
          </mxGeometry>
        </mxCell>
        <mxCell id="iEx4f8ndvjwDf2tm4CGQ-11" value="" style="endArrow=classic;html=1;rounded=0;entryX=0;entryY=0.5;entryDx=0;entryDy=0;exitX=1;exitY=0.5;exitDx=0;exitDy=0;" parent="1" source="11REJVE-vnxYnZSF75ua-157" target="11REJVE-vnxYnZSF75ua-159" edge="1">
          <mxGeometry width="50" height="50" relative="1" as="geometry">
            <mxPoint x="1228.38" y="469.57000000000005" as="sourcePoint" />
            <mxPoint x="1459.38" y="499.57000000000005" as="targetPoint" />
          </mxGeometry>
        </mxCell>
        <mxCell id="iEx4f8ndvjwDf2tm4CGQ-12" value="&lt;div&gt;&lt;span style=&quot;font-size: 8px;&quot;&gt;Obs:&lt;/span&gt;&lt;/div&gt;&lt;div&gt;&lt;span style=&quot;font-size: 8px;&quot;&gt;Aqui adiciona-se se&lt;/span&gt;&lt;/div&gt;&lt;div&gt;&lt;span style=&quot;font-size: 8px;&quot;&gt;&amp;nbsp;um produtor está&lt;/span&gt;&lt;/div&gt;&lt;div&gt;&lt;span style=&quot;font-size: 8px;&quot;&gt;&amp;nbsp;inativo ou com&lt;/span&gt;&lt;/div&gt;&lt;div&gt;&lt;span style=&quot;font-size: 8px;&quot;&gt;&amp;nbsp;pendências administrativas&lt;/span&gt;&lt;/div&gt;" style="text;html=1;align=center;verticalAlign=middle;resizable=0;points=[];autosize=1;strokeColor=none;fillColor=none;" parent="1" vertex="1">
          <mxGeometry x="900" y="612.81" width="120" height="90" as="geometry" />
        </mxCell>
        <mxCell id="iEx4f8ndvjwDf2tm4CGQ-13" value="&lt;span style=&quot;font-size: 8px;&quot;&gt;Aqui registra-se as vendas&amp;nbsp;&lt;/span&gt;&lt;div&gt;&lt;span style=&quot;font-size: 8px;&quot;&gt;e informa as observações&amp;nbsp; &amp;nbsp;&lt;/span&gt;&lt;/div&gt;" style="text;html=1;align=center;verticalAlign=middle;resizable=0;points=[];autosize=1;strokeColor=none;fillColor=none;" parent="1" vertex="1">
          <mxGeometry x="1300.19" y="649.57" width="120" height="40" as="geometry" />
        </mxCell>
        <mxCell id="nGpf0-Rj_euzcakXzFP2-1" value="Tela de login" style="whiteSpace=wrap;html=1;" vertex="1" parent="1">
          <mxGeometry x="200" y="419.57" width="120" height="60" as="geometry" />
        </mxCell>
        <mxCell id="nGpf0-Rj_euzcakXzFP2-3" value="Seleção de Feira" style="rounded=1;whiteSpace=wrap;html=1;" vertex="1" parent="1">
          <mxGeometry x="1000.3" y="210" width="120" height="60" as="geometry" />
        </mxCell>
        <mxCell id="nGpf0-Rj_euzcakXzFP2-4" value="" style="endArrow=classic;html=1;rounded=0;entryX=0.006;entryY=0.372;entryDx=0;entryDy=0;exitX=1.014;exitY=0.361;exitDx=0;exitDy=0;entryPerimeter=0;exitPerimeter=0;" edge="1" parent="1" source="11REJVE-vnxYnZSF75ua-10" target="nGpf0-Rj_euzcakXzFP2-3">
          <mxGeometry width="50" height="50" relative="1" as="geometry">
            <mxPoint x="921.29" y="230" as="sourcePoint" />
            <mxPoint x="991.29" y="230" as="targetPoint" />
          </mxGeometry>
        </mxCell>
        <mxCell id="nGpf0-Rj_euzcakXzFP2-5" value="" style="endArrow=classic;html=1;rounded=0;entryX=1;entryY=0.75;entryDx=0;entryDy=0;exitX=0;exitY=0.75;exitDx=0;exitDy=0;" edge="1" parent="1" source="nGpf0-Rj_euzcakXzFP2-3" target="11REJVE-vnxYnZSF75ua-10">
          <mxGeometry width="50" height="50" relative="1" as="geometry">
            <mxPoint x="995" y="300" as="sourcePoint" />
            <mxPoint x="925" y="300" as="targetPoint" />
          </mxGeometry>
        </mxCell>
        <mxCell id="nGpf0-Rj_euzcakXzFP2-6" value="" style="endArrow=classic;html=1;rounded=0;entryX=0;entryY=0.5;entryDx=0;entryDy=0;exitX=0.5;exitY=1;exitDx=0;exitDy=0;" edge="1" parent="1" source="11REJVE-vnxYnZSF75ua-7" target="11REJVE-vnxYnZSF75ua-157">
          <mxGeometry width="50" height="50" relative="1" as="geometry">
            <mxPoint x="670" y="600" as="sourcePoint" />
            <mxPoint x="950" y="370" as="targetPoint" />
          </mxGeometry>
        </mxCell>
        <mxCell id="nGpf0-Rj_euzcakXzFP2-7" value="" style="endArrow=classic;html=1;rounded=0;entryX=0;entryY=0.5;entryDx=0;entryDy=0;exitX=0.5;exitY=0;exitDx=0;exitDy=0;" edge="1" parent="1" source="11REJVE-vnxYnZSF75ua-8" target="11REJVE-vnxYnZSF75ua-157">
          <mxGeometry width="50" height="50" relative="1" as="geometry">
            <mxPoint x="750" y="830" as="sourcePoint" />
            <mxPoint x="1030" y="600" as="targetPoint" />
          </mxGeometry>
        </mxCell>
      </root>
    </mxGraphModel>
  </diagram>
</mxfile>
